<svg width="586" height="171" viewBox="0 0 586 171" fill="none" xmlns="http://www.w3.org/2000/svg">
<g clip-path="url(#clip0_4785_29)">
<path fill-rule="evenodd" clip-rule="evenodd" d="M0 16.075V154.003C0 164.72 5.35834 170.078 16.075 170.078H569.751C580.467 170.078 585.826 164.72 585.826 154.003V16.075C585.826 5.35835 580.467 0 569.751 0H16.075C5.35834 0 0 5.35835 0 16.075Z" fill="#050109"/>
<path fill-rule="evenodd" clip-rule="evenodd" d="M234.214 21.9639H284.17L301.774 41.1918V21.9639H458.51L477.875 57.2658L497.239 21.9639H557.731L503.363 120.94H307.843L290.239 101.711V120.94H170.445C160.297 120.94 150.014 118.749 142.794 113.212C135.574 118.749 125.292 120.94 115.145 120.94H67.854C49.3445 120.94 30.3819 113.649 30.3819 92.0592V50.8459C30.3819 29.255 49.3429 21.9639 67.854 21.9639H115.145C125.292 21.9639 135.574 24.1549 142.794 29.6917C150.014 24.1549 160.297 21.9639 170.445 21.9639H234.214ZM430.267 52.7578H393.496L352.326 45.38V47.0501L386.449 57.2004V61.6779H430.805L440.828 81.6479H386.449V85.7712L352.326 94.6328V96.087L392.771 90.1457H444.835L454.901 110.116H352.325V32.7878H454.888L480.587 79.8491L480.631 79.7699L499.573 110.06L499.543 110.116H461.632C451.178 90.9956 440.722 71.877 430.267 52.7578ZM481.453 78.2631L506.287 32.7878H541.828L502.628 104.473L481.453 78.2631ZM40.0129 92.0587V50.8459C40.0129 38.2608 50.2849 34.0384 60.8276 33.0423L74.105 58.9103L74.1382 58.8546V86.6687L74.105 86.6371L40.2836 95.4227C40.1057 94.374 40.0129 93.2547 40.0129 92.0587ZM62.1285 32.9357C63.5946 32.8328 65.058 32.7878 66.4918 32.7878H113.568C123.503 32.7878 134.855 34.9247 138.696 43.7821L103.162 52.7578H77.7835L62.1285 32.9357ZM139.062 44.7058C139.698 46.4897 140.046 48.5258 140.046 50.8459V92.0587C140.046 104.521 129.971 108.783 119.538 109.831L105.922 87.4076V57.1222L139.062 44.7058ZM117.496 109.997C116.176 110.079 114.86 110.116 113.568 110.116H66.4918C55.7864 110.116 43.4316 107.633 40.6093 96.9321L77.813 90.1457H100.893L117.496 109.997ZM209.039 90.1457V84.753L242.968 89.0081L243.165 88.7708V110.116H170.954C160.63 110.116 148.772 107.809 145.409 98.0456L181.446 90.1457H209.039ZM145.066 96.9112C144.682 95.4511 144.476 93.8392 144.476 92.0587V50.8459C144.476 39.0881 153.439 34.6305 163.213 33.2829L178.602 55.8662V85.3956L178.405 85.0665L145.066 96.9112ZM166.824 32.919C168.212 32.8274 169.596 32.7878 170.954 32.7878H243.077V52.7578H182.949L166.824 32.919ZM209.039 79.3583V79.3123H208.843H191.554V59.3422H243.165V87.4307L209.039 79.3583ZM314.429 67.0887V32.7878H348.552V101.655L314.429 67.0887ZM348.552 110.05V110.116H314.425L283.331 75.9975L247.174 32.8129V32.7878H281.3L312.41 66.9231L312.387 66.9218L348.531 110.116L348.552 110.05ZM281.297 75.7419V110.116H247.174V42.115L281.297 75.7419ZM86.4078 79.3213H96.5896V63.5822H86.4078V79.3213Z" fill="#E53913"/>
<path fill-rule="evenodd" clip-rule="evenodd" d="M461.329 134.22V139.626C461.329 143.527 458.472 145.142 455.173 145.746L463.808 156.079H450.58L441.841 145.622V139.447H448.455C448.655 139.447 449.421 139.473 449.421 139.14V134.526C449.421 134.194 448.655 134.22 448.455 134.22H437.749V156.079H425.843V127.708H451.786C454.836 127.708 458.358 128.222 460.148 130.413V127.708H499.736V134.22H485.896V156.079H473.989V134.22H461.329ZM358.55 146.566V156.079H346.644V140.054H369.256C369.457 140.054 370.223 140.079 370.223 139.748V134.526C370.223 134.194 369.457 134.22 369.256 134.22H320.654C320.454 134.22 319.687 134.194 319.687 134.526V137.724C319.687 138.057 320.454 138.03 320.654 138.03H333.725C338.026 138.03 343.266 139.054 343.266 144.362V149.747C343.266 155.054 338.026 156.079 333.725 156.079H307.781V149.567H330.393C330.594 149.567 331.359 149.592 331.359 149.26V144.847C331.359 144.515 330.594 144.542 330.393 144.542H317.322C313.02 144.542 307.781 143.518 307.781 138.21V134.041C307.781 128.733 313.02 127.708 317.322 127.708H372.588C376.89 127.708 382.13 128.732 382.13 134.041V140.234C382.13 145.542 376.89 146.566 372.588 146.566H358.55ZM385.336 149.747V134.041C385.336 128.733 390.575 127.708 394.877 127.708H412.818C417.119 127.708 422.36 128.734 422.36 134.041V149.747C422.36 155.053 417.118 156.079 412.818 156.079H394.877C390.576 156.079 385.336 155.054 385.336 149.747ZM397.242 149.26C397.242 149.592 398.008 149.567 398.21 149.567H409.486C409.687 149.567 410.453 149.592 410.453 149.26V134.526C410.453 134.194 409.686 134.22 409.486 134.22H398.21C398.009 134.22 397.242 134.195 397.242 134.526V149.26Z" fill="#E53913"/>
</g>
<defs>
<clipPath id="clip0_4785_29">
<rect width="585.826" height="170.078" fill="white"/>
</clipPath>
</defs>
</svg>
